<?xml version="1.0" standalone="no"?>
<!DOCTYPE svg PUBLIC "-//W3C//DTD SVG 20010904//EN"
 "http://www.w3.org/TR/2001/REC-SVG-20010904/DTD/svg10.dtd">
<svg version="1.0" xmlns="http://www.w3.org/2000/svg"
 width="700.000000pt" height="700.000000pt" viewBox="0 0 700.000000 700.000000"
 preserveAspectRatio="xMidYMid meet">
<metadata>
Created by potrace 1.11, written by Peter Selinger 2001-2013
</metadata>
<g transform="translate(0.000000,700.000000) scale(0.100000,-0.100000)"
fill="#000000" stroke="none">
<path d="M949 6256 c-2 -3 -47 -7 -99 -9 -52 -3 -96 -7 -97 -8 -2 -1 -15 -2
-30 -3 -16 -1 -48 -6 -73 -10 -25 -4 -58 -10 -75 -12 -144 -22 -360 -71 -483
-111 l-83 -27 7 -30 c4 -17 11 -42 17 -56 5 -14 11 -29 13 -35 5 -19 52 -171
89 -285 20 -63 38 -119 39 -125 2 -5 5 -17 8 -25 12 -35 51 -156 53 -165 1 -5
5 -17 8 -25 9 -25 41 -124 43 -135 1 -6 18 -62 39 -125 20 -63 38 -119 39
-125 5 -23 68 -222 76 -240 4 -11 22 -67 40 -125 17 -58 35 -116 40 -130 5
-14 32 -99 60 -190 29 -91 67 -212 85 -270 18 -58 59 -186 90 -285 31 -99 60
-191 65 -205 11 -31 79 -272 84 -300 1 -3 5 -11 9 -17 5 -7 6 -13 3 -13 -3 0
-1 -11 4 -25 5 -14 12 -36 14 -48 2 -12 27 -107 56 -212 28 -104 60 -224 71
-265 11 -41 25 -91 30 -110 5 -19 11 -42 13 -50 4 -15 32 -117 62 -230 9 -30
17 -62 19 -70 2 -8 4 -15 5 -15 1 0 3 -7 5 -15 1 -8 10 -42 19 -75 9 -33 18
-67 20 -75 2 -8 14 -51 26 -95 12 -44 23 -90 26 -102 2 -12 8 -33 13 -45 5
-13 9 -26 10 -30 0 -5 1 -9 2 -10 0 -2 7 -30 15 -63 14 -58 20 -85 24 -95 1
-3 2 -9 1 -13 -1 -4 3 -16 8 -26 6 -10 12 -29 15 -42 2 -13 18 -76 36 -139 17
-63 33 -122 35 -130 2 -8 11 -42 20 -75 28 -103 84 -320 85 -327 0 -9 62 -1
97 13 13 5 23 7 23 4 0 -2 46 12 103 31 56 20 107 37 112 38 6 2 19 7 30 11
11 4 49 19 85 32 84 32 434 203 438 214 2 5 9 9 17 9 7 0 18 7 25 15 6 8 15
13 18 12 4 -1 32 15 62 34 31 20 67 42 80 49 14 7 27 16 30 19 3 3 39 28 80
56 76 50 138 96 174 128 11 9 23 17 27 17 5 0 16 8 26 18 10 10 43 38 73 62
84 69 100 82 136 117 19 18 36 33 39 33 4 0 33 27 142 133 l52 50 158 -159
c87 -88 187 -184 222 -214 35 -30 83 -72 105 -92 23 -21 44 -38 47 -38 3 0 15
-8 26 -18 85 -73 269 -203 385 -273 49 -30 101 -62 116 -71 172 -107 639 -309
669 -289 8 5 20 30 28 61 1 3 4 12 8 20 3 8 33 98 67 200 34 102 65 194 70
205 5 11 25 70 45 130 21 61 94 274 162 475 69 201 138 406 154 455 16 50 32
97 36 105 3 8 7 17 8 20 2 11 47 146 52 160 4 8 7 17 8 20 4 17 38 118 45 135
4 11 45 135 90 275 44 140 85 264 90 275 9 20 89 241 94 260 2 6 6 17 9 25 19
47 89 237 91 245 1 6 4 15 8 20 3 6 34 87 68 180 34 94 68 184 75 200 12 29
48 124 51 135 0 3 4 12 7 20 3 8 13 35 22 60 9 25 25 70 36 100 10 30 23 64
28 75 5 11 38 99 74 195 100 272 309 832 320 860 6 14 11 30 13 35 1 6 23 64
48 130 33 85 42 121 34 126 -7 4 -15 6 -18 4 -3 -1 -27 -6 -55 -9 -27 -4 -63
-9 -80 -11 -46 -7 -102 -15 -148 -20 -23 -3 -53 -7 -67 -10 -14 -3 -50 -7 -80
-10 -30 -3 -66 -7 -80 -10 -14 -3 -47 -8 -73 -11 -90 -9 -89 -9 -146 -166 -29
-79 -61 -165 -71 -193 -10 -27 -32 -88 -49 -135 -16 -47 -59 -168 -96 -270
-36 -102 -67 -192 -70 -200 -2 -8 -11 -35 -20 -60 -9 -25 -18 -52 -20 -60 -2
-8 -20 -57 -39 -109 -20 -52 -38 -102 -40 -110 -2 -9 -9 -29 -15 -46 -7 -16
-14 -38 -16 -48 -2 -9 -7 -21 -10 -27 -3 -5 -21 -54 -40 -107 -18 -54 -55
-156 -80 -228 -25 -71 -46 -132 -47 -135 0 -3 -2 -9 -4 -15 -2 -5 -17 -52 -34
-102 -17 -51 -33 -101 -35 -110 -2 -10 -34 -103 -70 -208 -37 -104 -78 -221
-91 -260 -13 -38 -28 -79 -33 -90 -5 -11 -32 -85 -61 -165 -28 -80 -63 -174
-77 -210 -14 -36 -27 -72 -28 -80 -2 -8 -4 -16 -5 -17 -2 -2 -3 -6 -5 -10 -1
-5 -7 -21 -13 -36 -7 -16 -12 -31 -12 -34 0 -6 -73 -208 -92 -253 -5 -14 -9
-26 -9 -27 1 -3 -35 -102 -52 -143 -6 -14 -11 -27 -12 -30 -4 -20 -40 -121
-50 -145 -18 -41 -56 -146 -60 -165 -7 -33 -45 -110 -54 -110 -29 0 -280 110
-311 136 -8 7 -17 12 -20 11 -8 -2 -183 112 -242 157 -14 12 -37 29 -50 39
-76 59 -103 84 -222 198 -145 141 -140 126 -81 209 14 19 30 42 35 50 5 8 21
32 35 53 14 21 25 40 25 42 0 2 22 41 49 88 40 70 142 269 146 287 1 3 7 16
13 30 34 79 69 166 69 173 1 4 5 20 11 35 10 28 18 52 21 64 1 4 9 27 17 50
16 46 50 174 58 223 3 17 8 41 11 55 9 39 13 61 19 110 4 25 10 68 13 95 9 63
9 398 1 485 -15 144 -42 226 -126 380 -33 61 -187 299 -201 310 -3 3 -30 34
-60 70 -88 105 -251 263 -366 355 -27 22 -51 43 -53 48 -2 4 -10 7 -18 7 -8 0
-14 5 -14 10 0 6 -6 10 -14 10 -8 0 -16 4 -18 9 -5 14 -172 122 -301 195 -103
59 -175 94 -332 166 -113 51 -415 160 -485 175 -8 2 -15 4 -15 5 0 1 -7 3 -15
5 -8 2 -25 6 -37 9 -13 3 -31 8 -40 10 -10 2 -31 9 -48 16 -16 6 -31 11 -33
10 -1 -1 -15 1 -30 4 -15 4 -36 8 -47 11 -11 2 -54 11 -95 20 -41 9 -93 19
-115 21 -22 3 -48 7 -57 10 -22 6 -47 11 -113 19 -27 3 -57 8 -65 10 -8 2 -44
7 -80 10 -36 3 -92 9 -125 12 -70 6 -571 14 -576 9z m731 -741 c52 -3 106 -8
120 -10 14 -2 49 -7 79 -10 30 -4 61 -8 70 -10 9 -1 36 -6 61 -11 25 -4 47 -8
50 -9 3 -1 23 -5 45 -9 84 -15 331 -81 357 -96 10 -6 23 -10 30 -10 12 0 140
-46 193 -70 393 -171 629 -322 851 -545 99 -100 214 -241 214 -263 0 -7 3 -12
8 -12 10 0 40 -70 68 -159 20 -64 23 -90 20 -195 -3 -114 -8 -166 -21 -226 -3
-14 -8 -38 -11 -55 -6 -29 -12 -57 -13 -62 -1 -2 -2 -6 -3 -10 -22 -98 -89
-280 -152 -416 -37 -79 -134 -258 -146 -267 -3 -3 -18 -25 -32 -50 -32 -56
-186 -264 -199 -268 -5 -2 -9 -8 -9 -12 0 -5 -15 -26 -32 -46 -58 -64 -141
-154 -188 -203 -25 -26 -56 -60 -70 -76 -56 -67 -323 -283 -435 -352 -139 -87
-265 -156 -265 -145 0 4 -4 2 -8 -4 -7 -11 -117 -57 -128 -54 -4 1 -10 -2 -13
-7 -6 -8 -107 -42 -141 -46 -8 -2 -21 -6 -28 -10 -12 -8 -21 4 -26 35 -1 7 -4
18 -8 23 -3 6 -9 28 -13 50 -4 22 -12 46 -18 52 -5 7 -7 13 -4 13 3 0 -2 21
-10 48 -27 88 -114 387 -118 408 -3 12 -11 40 -20 63 -8 23 -14 44 -14 46 0 5
-18 72 -28 105 -2 8 -4 16 -5 17 0 1 -11 40 -25 85 -44 148 -55 187 -78 273
-9 33 -19 67 -22 75 -7 19 -10 29 -15 55 -2 11 -6 25 -9 30 -4 6 -10 24 -14
40 -5 17 -9 35 -11 40 -2 6 -8 30 -14 55 -7 25 -15 54 -20 65 -8 19 -21 72
-19 77 0 2 -5 17 -11 33 -7 17 -13 37 -15 45 -2 8 -47 161 -100 340 -53 179
-100 339 -105 355 -4 17 -16 55 -26 85 -10 30 -19 60 -20 67 -3 16 -38 134
-71 238 -14 44 -26 87 -28 95 -2 8 -12 43 -23 78 -11 34 -18 62 -15 62 3 0 1
6 -4 13 -6 6 -13 26 -17 42 -4 17 -17 64 -30 105 -37 120 -56 184 -61 205 -6
27 -51 176 -60 196 -5 13 11 21 92 43 54 15 112 29 128 31 17 2 30 4 30 5 0 1
9 3 20 4 11 2 40 6 65 10 25 3 81 9 124 11 44 3 80 6 82 7 4 5 161 0 264 -7z"/>
</g>
</svg>
