<?xml version="1.0" standalone="no"?>
<!DOCTYPE svg PUBLIC "-//W3C//DTD SVG 20010904//EN"
 "http://www.w3.org/TR/2001/REC-SVG-20010904/DTD/svg10.dtd">
<svg version="1.0" xmlns="http://www.w3.org/2000/svg"
 width="70.000000pt" height="70.000000pt" viewBox="0 0 70.000000 70.000000"
 preserveAspectRatio="xMidYMid meet">
<metadata>
Created by potrace 1.11, written by Peter Selinger 2001-2013
</metadata>
<g transform="translate(0.000000,70.000000) scale(0.100000,-0.100000)"
fill="#c03304" stroke="none">
<path d="M0 350 l0 -350 350 0 350 0 0 350 0 350 -350 0 -350 0 0 -350z m390
103 c36 -21 50 -52 50 -108 0 -89 -39 -125 -135 -125 l-55 0 0 125 0 125 56 0
c34 0 67 -6 84 -17z"/>
<path d="M290 345 l0 -95 38 0 c62 0 92 57 71 134 -11 40 -33 56 -78 56 l-31
0 0 -95z"/>
</g>
</svg>
